<svg xmlns="http://www.w3.org/2000/svg" width="1600" height="900" viewBox="0 0 1600 900" role="img" aria-labelledby="title desc">
  <!-- status-surface: secondary-roadmap-visual -->
  <title id="title">eimir. Roadmap – release the Core before optional expansion</title>
  <desc id="desc">M0 through M5 form the Core delivery path through G4. M6 Operate and Launch leads to G5 Launch-ready. M7 Relationship Depth, M8 Discover and Integrations, and M9 Context and Presence follow after launch. This diagram shows sequence, not current execution status. E2EE remains a separate strategic track.</desc>
  <defs>
    <marker id="arrow" markerWidth="10" markerHeight="10" refX="8" refY="5" orient="auto"><path d="M0,0 L10,5 L0,10 z" fill="#6B6472"/></marker>
    <filter id="shadow" x="-10%" y="-10%" width="120%" height="130%"><feDropShadow dx="0" dy="5" stdDeviation="8" flood-color="#211A2B" flood-opacity="0.10"/></filter>
  </defs>
  <rect width="1600" height="900" fill="#FAF8FC"/>
  <circle cx="1510" cy="30" r="220" fill="#EEE7FF" opacity="0.8"/><circle cx="90" cy="890" r="210" fill="#E3F6F1" opacity="0.8"/>
  <text x="72" y="68" fill="#6638DC" font-family="Arial, sans-serif" font-size="17" font-weight="700" letter-spacing="2">EIMIR. · PRODUCT ROADMAP · RELEASE SEQUENCE</text>
  <text x="72" y="118" fill="#211A2B" font-family="Georgia, serif" font-size="42" font-weight="700">Release the Core before optional expansion</text>
  <text x="72" y="151" fill="#51485C" font-family="Arial, sans-serif" font-size="19">M0–M5 deliver the Core. M6 makes it safe to operate and launch. M7–M9 expand after G5.</text>
  <g font-family="Arial, sans-serif">
    <rect x="72" y="190" width="620" height="44" rx="15" fill="#E3F6F1"/><text x="382" y="218" text-anchor="middle" fill="#237A65" font-size="14" font-weight="700">CORE DELIVERY · M0–M4</text>
    <rect x="706" y="190" width="190" height="44" rx="15" fill="#EEE7FF"/><text x="801" y="218" text-anchor="middle" fill="#6638DC" font-size="14" font-weight="700">CORE CLIENT · M5 / G4</text>
    <rect x="910" y="190" width="258" height="44" rx="15" fill="#E7F2FF"/><text x="1039" y="218" text-anchor="middle" fill="#1769AA" font-size="14" font-weight="700">OPERATE &amp; GATE · M6 / G5</text>
    <rect x="1182" y="190" width="346" height="44" rx="15" fill="#FFF2D5"/><text x="1355" y="218" text-anchor="middle" fill="#7A5100" font-size="14" font-weight="700">POST-LAUNCH · M7–M9</text>
  </g>
  <g filter="url(#shadow)" font-family="Arial, sans-serif">
    <g transform="translate(72 266)"><rect width="220" height="155" rx="20" fill="#FFFFFF"/><rect width="220" height="7" rx="4" fill="#36AE97"/><text x="20" y="42" fill="#237A65" font-size="15" font-weight="700">M0</text><text x="20" y="72" fill="#211A2B" font-size="22" font-weight="700">Foundation</text><text x="20" y="104" fill="#51485C" font-size="15">Platform · CI · Security</text><text x="20" y="132" fill="#237A65" font-size="13" font-weight="700">COMPLETE</text></g>
    <g transform="translate(310 266)"><rect width="220" height="155" rx="20" fill="#FFFFFF"/><rect width="220" height="7" rx="4" fill="#36AE97"/><text x="20" y="42" fill="#237A65" font-size="15" font-weight="700">M1</text><text x="20" y="72" fill="#211A2B" font-size="22" font-weight="700">Connect</text><text x="20" y="104" fill="#51485C" font-size="15">Identity · Space · Profiles</text><text x="20" y="132" fill="#237A65" font-size="13" font-weight="700">G1 PASSED</text></g>
    <g transform="translate(548 266)"><rect width="220" height="155" rx="20" fill="#FFFFFF"/><rect width="220" height="7" rx="4" fill="#36AE97"/><text x="20" y="42" fill="#237A65" font-size="15" font-weight="700">M2</text><text x="20" y="72" fill="#211A2B" font-size="22" font-weight="700">Memories</text><text x="20" y="104" fill="#51485C" font-size="15">Media · Story · Comments</text><text x="20" y="132" fill="#237A65" font-size="13" font-weight="700">G2 PASSED</text></g>
    <g transform="translate(786 266)"><rect width="220" height="155" rx="20" fill="#FFFFFF"/><rect width="220" height="7" rx="4" fill="#36AE97"/><text x="20" y="42" fill="#237A65" font-size="15" font-weight="700">M3</text><text x="20" y="72" fill="#211A2B" font-size="22" font-weight="700">Shared Life</text><text x="20" y="104" fill="#51485C" font-size="15">Planning · Private Area</text><text x="20" y="132" fill="#237A65" font-size="13" font-weight="700">G3 PASSED</text></g>
    <g transform="translate(1024 266)"><rect width="220" height="155" rx="20" fill="#FFFFFF"/><rect width="220" height="7" rx="4" fill="#36AE97"/><text x="20" y="42" fill="#237A65" font-size="15" font-weight="700">M4</text><text x="20" y="72" fill="#211A2B" font-size="22" font-weight="700">Engage</text><text x="20" y="104" fill="#51485C" font-size="15">Search · Notify · Remind</text><text x="20" y="132" fill="#237A65" font-size="13" font-weight="700">COMPLETE</text></g>
    <g transform="translate(1262 266)"><rect width="266" height="155" rx="20" fill="#FFFFFF" stroke="#7C4DFF" stroke-width="3"/><rect width="266" height="7" rx="4" fill="#7C4DFF"/><text x="20" y="42" fill="#6638DC" font-size="15" font-weight="700">M5</text><text x="20" y="72" fill="#211A2B" font-size="22" font-weight="700">Client Completion</text><text x="20" y="104" fill="#51485C" font-size="15">Web · Android · Portability</text><text x="20" y="132" fill="#6638DC" font-size="13" font-weight="700">G4 PASSED</text></g>
  </g>
  <line x1="1395" y1="432" x2="1395" y2="486" stroke="#6B6472" stroke-width="3" marker-end="url(#arrow)"/><rect x="1285" y="445" width="220" height="42" rx="21" fill="#EEE7FF"/><text x="1395" y="472" text-anchor="middle" fill="#6638DC" font-family="Arial, sans-serif" font-size="14" font-weight="700">G4 · CORE RC</text>
  <g filter="url(#shadow)" font-family="Arial, sans-serif">
    <g transform="translate(72 520)"><rect width="456" height="190" rx="22" fill="#FFFFFF" stroke="#1769AA" stroke-width="3"/><rect width="456" height="8" rx="4" fill="#1769AA"/><text x="22" y="45" fill="#1769AA" font-size="16" font-weight="700">M6 · OPERATE &amp; LAUNCH</text><text x="22" y="82" fill="#211A2B" font-size="26" font-weight="700">Make the Core safely releasable</text><text x="22" y="116" fill="#51485C" font-size="16">Backup · Upgrade · Admin · Cloud/Self-Hosted</text><text x="22" y="144" fill="#51485C" font-size="16">Entitlements · Hardening · Release QA</text><rect x="22" y="158" width="144" height="25" rx="12" fill="#E7F2FF"/><text x="94" y="176" text-anchor="middle" fill="#1769AA" font-size="12" font-weight="700">LAUNCH PREP → G5</text></g>
    <g transform="translate(554 520)"><rect width="300" height="190" rx="22" fill="#FFFFFF"/><rect width="300" height="8" rx="4" fill="#A61F51"/><text x="22" y="45" fill="#A61F51" font-size="16" font-weight="700">M7 · RELATIONSHIP DEPTH</text><text x="22" y="82" fill="#211A2B" font-size="22" font-weight="700">Optional connection</text><text x="22" y="114" fill="#51485C" font-size="15">Check-in · Vibe · Energy</text><text x="22" y="140" fill="#51485C" font-size="15">Notes · Questions · Recaps</text><text x="22" y="169" fill="#7A5100" font-size="12" font-weight="700">POST-LAUNCH</text></g>
    <g transform="translate(880 520)"><rect width="300" height="190" rx="22" fill="#FFFFFF"/><rect width="300" height="8" rx="4" fill="#B47700"/><text x="22" y="45" fill="#7A5100" font-size="16" font-weight="700">M8 · DISCOVER</text><text x="22" y="82" fill="#211A2B" font-size="22" font-weight="700">External inspiration</text><text x="22" y="114" fill="#51485C" font-size="15">Shopping · Recipes · Events</text><text x="22" y="140" fill="#51485C" font-size="15">Entertainment · External media</text><text x="22" y="169" fill="#7A5100" font-size="12" font-weight="700">POST-LAUNCH</text></g>
    <g transform="translate(1206 520)"><rect width="322" height="190" rx="22" fill="#FFFFFF"/><rect width="322" height="8" rx="4" fill="#B47700"/><text x="22" y="45" fill="#7A5100" font-size="16" font-weight="700">M9 · CONTEXT &amp; PRESENCE</text><text x="22" y="82" fill="#211A2B" font-size="22" font-weight="700">Explicit location context</text><text x="22" y="114" fill="#51485C" font-size="15">Maps · History · Geofencing</text><text x="22" y="140" fill="#51485C" font-size="15">Presence · Context suggestions</text><text x="22" y="169" fill="#7A5100" font-size="12" font-weight="700">POST-LAUNCH</text></g>
  </g>
  <line x1="300" y1="722" x2="300" y2="774" stroke="#6B6472" stroke-width="3" marker-end="url(#arrow)"/><rect x="188" y="736" width="224" height="42" rx="21" fill="#E7F2FF"/><text x="300" y="763" text-anchor="middle" fill="#1769AA" font-family="Arial, sans-serif" font-size="14" font-weight="700">G5 · LAUNCH-READY</text>
  <line x1="424" y1="758" x2="548" y2="615" stroke="#B7B0BD" stroke-width="2" marker-end="url(#arrow)"/><line x1="424" y1="758" x2="874" y2="615" stroke="#B7B0BD" stroke-width="2" marker-end="url(#arrow)"/><line x1="1186" y1="615" x2="1200" y2="615" stroke="#B7B0BD" stroke-width="2" marker-end="url(#arrow)"/>
  <rect x="72" y="812" width="1456" height="54" rx="18" fill="#FFFFFF" stroke="#E6E0EB"/><text x="96" y="845" fill="#51485C" font-family="Arial, sans-serif" font-size="15"><tspan font-weight="700" fill="#6638DC">MX · E2EE</tspan><tspan> remains a separate strategic track. Real E2EE is implemented and audited before any E2EE marketing claim.</tspan></text>
</svg>
