<svg xmlns="http://www.w3.org/2000/svg" width="390" height="844" viewBox="0 0 390 844">
  <defs>
    <linearGradient id="bg" x1="0" y1="0" x2="0" y2="1"><stop stop-color="#fffaf7"/><stop offset="1" stop-color="#f8f1f6"/></linearGradient>
    <linearGradient id="hero" x1="0" y1="0" x2="1" y2="1"><stop stop-color="#ffd7de"/><stop offset="1" stop-color="#ecdcf9"/></linearGradient>
    <linearGradient id="quote" x1="0" y1="0" x2="1" y2="1"><stop stop-color="#f9e7f4"/><stop offset="1" stop-color="#efe4f9"/></linearGradient>
    <filter id="sh"><feDropShadow dx="0" dy="7" stdDeviation="12" flood-color="#493649" flood-opacity=".08"/></filter>
    <style>
      .sans{font-family:Inter,Arial,sans-serif;fill:#2e2836}.serif{font-family:Georgia,'Times New Roman',serif;fill:#302936}
      .muted{fill:#7b727d}.tiny{font-size:9px}.small{font-size:10px}.label{font-size:11px;font-weight:700}
      .title{font-size:37px;font-weight:700}.section{font-size:21px;font-weight:700}.quoteText{font-size:19px}
      .card{fill:#fff;fill-opacity:.8;filter:url(#sh)}
    </style>
  </defs><rect width="390" height="844" fill="url(#bg)"/><rect x="18" y="18" width="36" height="36" rx="12" fill="#d26084"/><text x="36" y="43" text-anchor="middle" class="serif" font-size="19" font-weight="700" fill="#fff">e.</text>
 <circle cx="286" cy="36" r="9" fill="none" stroke="#4f4755" stroke-width="2"/><line x1="292" y1="42" x2="299" y2="49" stroke="#4f4755" stroke-width="2"/>
 <path d="M323 42 Q323 29 330 29 Q337 29 337 42" fill="none" stroke="#4f4755" stroke-width="2"/><line x1="323" y1="42" x2="337" y2="42" stroke="#4f4755" stroke-width="2"/><circle cx="337" cy="28" r="4" fill="#e44b78"/>
 <circle cx="362" cy="36" r="17" fill="#f2d9e1"/><text x="362" y="40" text-anchor="middle" class="sans small" font-weight="700" fill="#7b3853">LS</text><text x="18" y="113" class="serif title">Heute</text><text x="18" y="130" class="sans small muted">Mo, 21. September 2026</text><rect x="18" y="143" width="354" height="168" rx="24" fill="url(#hero)"/>
 <g><circle cx="66" cy="197" r="31" fill="#fff"/>
  <circle cx="66" cy="197" r="27" fill="#e6c0aa"/><path d="M43 190 Q66 162 89 190 L84 173 Q66 159 48 175Z" fill="#8b5f3e"/>
  <circle cx="57" cy="195" r="2" fill="#3f3030"/><circle cx="75" cy="195" r="2" fill="#3f3030"/>
  <path d="M58 208 Q66 214 74 208" fill="none" stroke="#a45d63" stroke-width="2" stroke-linecap="round"/>
  <path d="M42 222 Q66 207 90 222 L90 226 L42 226Z" fill="#d58aa2"/>
  <g transform="translate(82,215)"><rect x="-10" y="-7" width="22" height="14" rx="5" fill="#fff"/><rect x="-6" y="-3" width="12" height="6" rx="2" fill="#57c980"/><rect x="12" y="-3" width="2" height="6" rx="1" fill="#fff"/></g></g><g><circle cx="116" cy="197" r="31" fill="#fff"/>
  <circle cx="116" cy="197" r="27" fill="#e6c0aa"/><path d="M93 190 Q116 162 139 190 L134 173 Q116 159 98 175Z" fill="#4f352c"/>
  <circle cx="107" cy="195" r="2" fill="#3f3030"/><circle cx="125" cy="195" r="2" fill="#3f3030"/>
  <path d="M108 208 Q116 214 124 208" fill="none" stroke="#a45d63" stroke-width="2" stroke-linecap="round"/>
  <path d="M92 222 Q116 207 140 222 L140 226 L92 226Z" fill="#85a7c4"/>
  <g transform="translate(132,215)"><rect x="-10" y="-7" width="22" height="14" rx="5" fill="#fff"/><rect x="-6" y="-3" width="12" height="6" rx="2" fill="#57c980"/><rect x="12" y="-3" width="2" height="6" rx="1" fill="#fff"/></g></g>
 <text x="180" y="195" class="serif" font-size="20" font-weight="700">Lea &amp; Alex</text>
 <text x="180" y="216" class="sans small muted">3 Jahre, 2 Monate</text><text x="180" y="230" class="sans small muted">zusammen</text>
 <rect x="34" y="264" width="120" height="32" rx="16" fill="#fff" fill-opacity=".78"/><text x="94" y="284" text-anchor="middle" class="sans small" font-weight="700" fill="#714054">♡  Ich denke an dich</text><text x="21" y="349" class="serif section">Wie geht es euch heute?</text>
 <rect x="18" y="364" width="173" height="61" rx="19" class="card"/><text x="31" y="386" class="sans label">Du</text><text x="31" y="407" class="sans small muted">Ganz okay</text>
 <rect x="199" y="364" width="173" height="61" rx="19" class="card"/><text x="212" y="386" class="sans label">Alex</text><text x="212" y="407" class="sans small muted">Gut &amp; entspannt</text>
 <rect x="18" y="436" width="354" height="54" rx="19" fill="#fff" fill-opacity=".58"/>
 <circle cx="46" cy="463" r="16" fill="#f6e5ed"/><line x1="39" y1="468" x2="39" y2="461" stroke="#9d4b6d" stroke-width="2"/><line x1="46" y1="468" x2="46" y2="457" stroke="#9d4b6d" stroke-width="2"/><line x1="53" y1="468" x2="53" y2="454" stroke="#9d4b6d" stroke-width="2"/>
 <text x="73" y="458" class="sans label">Eure Woche</text><text x="73" y="475" class="sans tiny muted">Vibe &amp; Energie im Überblick</text>
 <rect x="294" y="450" width="39" height="24" rx="12" fill="#e8adbe"/><text x="313.5" y="466" text-anchor="middle" class="sans tiny" font-weight="700" fill="#6c334b">Pro</text><text x="350" y="468" class="sans" font-size="18" fill="#8d8390">›</text><rect x="18" y="501" width="354" height="161" rx="24" fill="url(#quote)" filter="url(#sh)"/>
 <text x="34" y="527" class="sans label" fill="#69475e">Zitat des Tages</text><rect x="124" y="513" width="40" height="23" rx="12" fill="#e6a8ba"/><text x="144" y="529" text-anchor="middle" class="sans tiny" font-weight="700" fill="#6a334a">Pro</text>
 <text x="341" y="533" class="serif" font-size="42" fill="#bc8bac">“</text>
 <text x="34" y="568" class="serif quoteText">„Es muss von Herzen gehen,</text><text x="34" y="594" class="serif quoteText">was auf Herzen wirken soll.“</text>
 <text x="34" y="616" class="sans tiny muted">— Johann Wolfgang von Goethe, Faust I</text>
 <rect x="34" y="626" width="79" height="23" rx="11" fill="#fff" fill-opacity=".55"/><text x="73.5" y="641" text-anchor="middle" class="sans tiny" fill="#76566d">Liebe &amp; Beziehung</text>
 <rect x="119" y="626" width="64" height="23" rx="11" fill="#fff" fill-opacity=".55"/><text x="151" y="641" text-anchor="middle" class="sans tiny" fill="#76566d">Achtsamkeit</text>
 <circle cx="342" cy="638" r="15" fill="#fff" fill-opacity=".55"/><circle cx="336" cy="638" r="1.6" fill="#695e69"/><circle cx="342" cy="638" r="1.6" fill="#695e69"/><circle cx="348" cy="638" r="1.6" fill="#695e69"/><rect x="14" y="759" width="362" height="72" rx="25" fill="#fff" fill-opacity=".94" filter="url(#sh)"/>
 <path d="M45 783 L52 776 L59 783 L57 783 L57 791 L47 791 L47 783Z" fill="#cf4e79"/><text x="52" y="811" text-anchor="middle" class="sans tiny" font-weight="700" fill="#cf4e79">Wir</text>
 <circle cx="122" cy="783" r="7" fill="none" stroke="#77717c" stroke-width="2"/><circle cx="122" cy="783" r="2" fill="#77717c"/><text x="122" y="811" text-anchor="middle" class="sans tiny muted">Momente</text>
 <circle cx="195" cy="791" r="21" fill="#cc4d78"/><text x="195" y="799" text-anchor="middle" class="sans" font-size="26" font-weight="700" fill="#fff">+</text>
 <rect x="261" y="775" width="15" height="15" rx="3" fill="none" stroke="#77717c" stroke-width="2"/><line x1="264" y1="773" x2="264" y2="779" stroke="#77717c" stroke-width="2"/><line x1="273" y1="773" x2="273" y2="779" stroke="#77717c" stroke-width="2"/><text x="268.5" y="811" text-anchor="middle" class="sans tiny muted">Planen</text>
 <circle cx="332" cy="783" r="2" fill="#77717c"/><circle cx="338" cy="783" r="2" fill="#77717c"/><circle cx="344" cy="783" r="2" fill="#77717c"/><text x="338" y="811" text-anchor="middle" class="sans tiny muted">Mehr</text>
<rect width="390" height="844" fill="#2b2530" fill-opacity=".42"/>
<rect x="0" y="209" width="390" height="675" rx="30" fill="#fffdfb"/><rect x="172" y="224" width="46" height="5" rx="3" fill="#d4ced2"/>
<text x="22" y="279" class="serif" font-size="27" font-weight="700">Dein Zitat des Tages</text><text x="22" y="300" class="sans small muted">Nur für dich – Alex sieht deine Auswahl nicht.</text>
<text x="22" y="330" class="sans tiny" font-weight="700" fill="#877782">RUBRIKEN</text>
<g class="sans tiny"><rect x="22" y="341" width="123" height="31" rx="16" fill="#f1ceda"/><text x="83.5" y="361" text-anchor="middle" font-weight="700" fill="#6d334d">✓  Liebe &amp; Beziehung</text>
<rect x="151" y="341" width="110" height="31" rx="16" fill="#f7f3f3"/><text x="206" y="361" text-anchor="middle">Leben &amp; Weisheit</text>
<rect x="267" y="341" width="87" height="31" rx="16" fill="#f7f3f3"/><text x="310.5" y="361" text-anchor="middle">Philosophie</text>
<rect x="22" y="378" width="95" height="31" rx="16" fill="#f1ceda"/><text x="69.5" y="398" text-anchor="middle" font-weight="700" fill="#6d334d">✓  Achtsamkeit</text>
<rect x="123" y="378" width="94" height="31" rx="16" fill="#f7f3f3"/><text x="170" y="398" text-anchor="middle">Gelassenheit</text>
<rect x="223" y="378" width="131" height="31" rx="16" fill="#f7f3f3"/><text x="288.5" y="398" text-anchor="middle">Mut &amp; Motivation</text></g>
<text x="22" y="435" class="sans tiny" font-weight="700" fill="#877782">QUELLEN</text>
<g class="sans"><text x="22" y="460" class="label">Klassische Literatur</text><text x="22" y="480" class="tiny muted">Werke der klassischen Weltliteratur</text><rect x="337" y="452" width="24" height="24" rx="8" fill="#cf5a80"/><text x="349" y="469" text-anchor="middle" font-size="13" fill="#fff">✓</text><line x1="22" y1="494" x2="368" y2="494" stroke="#ebe4e7"/>
<text x="22" y="518" class="label">Antike Philosophie</text><text x="22" y="538" class="tiny muted">Schriften der antiken und stoischen Philosophie</text><rect x="337" y="510" width="24" height="24" rx="8" fill="#fffdfb" stroke="#c8bdc3"/><line x1="22" y1="552" x2="368" y2="552" stroke="#ebe4e7"/>
<text x="22" y="576" class="label">Poesie &amp; Lebensweisheiten</text><text x="22" y="596" class="tiny muted">Klassische Aphorismen und poetische Reflexionen</text><rect x="337" y="568" width="24" height="24" rx="8" fill="#cf5a80"/><text x="349" y="585" text-anchor="middle" font-size="13" fill="#fff">✓</text><line x1="22" y1="610" x2="368" y2="610" stroke="#ebe4e7"/>
<text x="22" y="635" class="tiny muted">Alle Zitate stammen aus geprüften, gemeinfreien Sammlungen.</text></g>
<rect x="22" y="674" width="346" height="49" rx="16" fill="#cf4d79"/><text x="195" y="704" text-anchor="middle" class="sans" font-size="12" font-weight="700" fill="#fff">Fertig</text><text x="195" y="751" text-anchor="middle" class="sans small muted">Abbrechen</text>
</svg>